<svg width="1024" height="1024" viewBox="0 0 1024 1024" fill="none" xmlns="http://www.w3.org/2000/svg">
<rect width="1024" height="1024" fill="#3D253B"/>
<rect width="1024" height="1024" fill="#3D253B"/>
<path d="M504.754 216.302C491.407 217.39 479.779 221.114 468.151 227.987C459.101 233.372 446.728 245.172 440.198 254.738C434.871 262.528 429.601 275.531 428.054 284.696C427.825 286.243 427.309 288.706 426.966 290.138C426.049 294.147 426.164 309.041 427.252 314.425C429.372 325.423 430.861 330.063 434.871 338.598C438.193 345.529 440.026 348.278 446.499 356.183C453.831 365.062 464.027 373.31 473.364 377.893C482.471 382.303 490.663 384.824 500.229 386.141C518.1 388.49 535.056 385.626 551.381 377.435C557.968 374.169 562.608 370.79 571.028 363.286C573.549 360.995 584.432 347.935 584.432 347.133C584.432 346.904 585.12 345.643 586.036 344.326C586.895 343.066 588.098 340.832 588.728 339.4C589.301 337.968 590.16 336.421 590.561 335.906C590.962 335.447 591.306 334.474 591.306 333.786C591.306 333.156 591.535 332.469 591.822 332.297C592.91 331.609 596.06 319.58 597.034 312.477C598.18 304.515 597.263 287.732 595.373 281.259C592.681 272.151 591.65 269.516 588.098 262.471C585.463 257.144 582.599 252.905 578.131 247.52C573.091 241.449 572.575 240.876 569.253 238.298C567.706 237.038 565.071 234.861 563.41 233.372C557.109 227.758 543.705 221.171 533.452 218.651C523.943 216.302 513.976 215.5 504.754 216.302ZM520.678 259.836C530.989 262.242 539.753 267.798 545.595 275.531C552.068 284.18 554.302 290.711 554.302 301.594C554.245 309.785 553.214 314.139 549.433 321.757C547.199 326.225 542.101 332.068 537.118 335.848C524.516 345.472 505.842 346.789 491.866 339.056C488.028 336.937 481.899 331.896 478.863 328.344C475.655 324.564 473.306 320.268 471.244 314.482C469.755 310.243 469.64 309.27 469.64 301.594C469.64 293.918 469.755 292.945 471.244 288.706C474.452 279.655 478.29 274.042 485.335 268.314C495.016 260.466 508.993 257.086 520.678 259.836Z" fill="white"/>
<path d="M294.016 349.023C294.016 350.34 303.753 369.243 307.878 376.117C309.252 378.351 310.971 381.215 311.773 382.532C315.21 388.203 316.985 391.01 323.286 400.118C329.301 408.767 333.139 413.923 341.387 424.52C350.037 435.46 372.491 458.774 383.432 468.053C389.045 472.865 390.191 473.782 397.409 479.109C408.464 487.357 416.655 492.455 431.205 500.36C444.78 507.692 463.168 514.394 477.602 517.201C497.536 521.153 509.394 521.726 528.583 519.836C539.982 518.748 556.593 515.425 564.67 512.676C575.84 508.838 580.48 506.948 590.447 501.964C603.106 495.606 621.035 484.665 629.226 478.192C632.148 475.844 636.73 472.235 639.422 470.116C644.062 466.45 651.738 459.347 661.189 449.953C678.374 432.94 699.396 405.388 711.883 383.506C714.289 379.267 717.153 374.341 718.184 372.623C722.595 365.176 730.557 348.966 730.042 348.45C729.125 347.533 715.778 349.997 707.874 352.632C703.749 353.949 700.198 355.209 699.854 355.438C699.568 355.667 696.589 357.214 693.267 358.932C687.252 361.968 678.259 368.384 669.438 375.83C657.065 386.37 651.222 391.125 645.723 395.363C638.964 400.519 625.789 409.569 619.431 413.35C617.14 414.725 613.13 417.13 610.553 418.62C608.032 420.166 602.934 422.973 599.325 424.863C595.717 426.811 592.165 428.701 591.478 429.102C588.442 430.992 569.081 438.897 561.52 441.36C549.491 445.256 544.679 446.401 535.743 447.719C533.681 448.005 530.359 448.463 528.296 448.807C522.225 449.723 493.126 449.494 489.059 448.521C487.168 448.062 484.705 447.719 483.617 447.661C481.498 447.661 475.025 446.401 470.041 445.026C456.523 441.36 454.174 440.616 444.551 436.721C427.882 430.019 406.459 418.333 388.53 406.132C379.651 400.118 365.846 389.521 359.087 383.449C344.824 370.847 335.602 363.343 330.79 360.479C322.313 355.438 309.482 350.455 301.749 349.195C299.858 348.851 297.338 348.45 296.192 348.221C294.245 347.877 294.016 347.992 294.016 349.023Z" fill="white"/>
<path d="M319.792 543.092C318.99 543.206 316.183 543.607 313.491 543.951C301.004 545.498 289.261 548.362 278.836 552.371C277.289 553.002 274.54 554.033 272.821 554.72C263.885 558.1 245.097 569.04 238.223 574.826C223.044 587.6 212.332 599.915 205.115 612.918C203.282 616.24 197.954 627.009 196.923 629.529C196.522 630.446 195.892 631.878 195.606 632.68C193.143 638.637 189.534 652.786 188.274 661.607C187.014 670.486 186.613 684.348 187.415 692.482C188.675 705.084 192.398 720.779 196.007 728.626C196.58 729.886 197.783 732.579 198.585 734.526C202.136 743.004 211.53 756.236 220.18 765C233.641 778.69 249.68 787.741 271.389 793.927C281.814 796.906 297.395 797.994 311.2 796.619C326.036 795.187 348.375 787.741 364.471 778.919C366.534 777.774 369.57 776.113 371.288 775.139C376.1 772.504 397.294 758.183 403.48 753.486C421.352 739.739 424.846 736.646 427.481 732.063C430.059 727.538 430.918 724.445 431.319 718.545C431.605 713.905 431.433 712.473 430.402 709.093C427.023 698.21 418.431 690.19 408.005 688.243C398.783 686.467 389.503 688.816 382.343 694.716C368.481 706.229 347.287 720.779 335.544 726.908C327.468 731.147 315.152 735.958 309.825 737.047C308.221 737.333 303.868 737.734 300.202 737.906C292.812 738.25 286.454 737.104 279.122 734.24C267.494 729.657 257.241 720.149 252.2 709.265C240.457 683.89 246.357 651.01 266.749 628.785C269.728 625.52 278.607 618.474 282.845 615.954C289.777 611.83 300.316 607.132 305.185 605.987C305.815 605.815 307.648 605.357 309.195 604.898C315.782 603.065 318.933 602.722 330.103 602.435C342.246 602.206 341.559 602.149 355.02 604.956C357.254 605.414 359.545 605.758 360.175 605.758C360.805 605.758 361.837 606.101 362.467 606.56C363.097 606.961 364.242 607.476 365.044 607.648C366.648 607.992 369.512 608.965 372.319 610.168C373.293 610.569 374.438 610.913 374.897 610.913C376.271 610.913 397.294 621.51 402.277 624.718C404.969 626.494 409.38 629.243 412.072 630.904C414.765 632.508 420.435 636.632 424.674 640.012C428.913 643.392 435.214 648.49 438.651 651.239C442.145 654.046 447.529 658.686 450.68 661.55C453.83 664.414 458.069 668.309 460.131 670.142C462.194 672.032 465.516 675.183 467.578 677.13C469.64 679.021 474.681 683.66 478.748 687.384C482.872 691.164 487.741 695.632 489.631 697.408C491.522 699.241 495.76 703.079 499.083 706C502.405 708.921 507.045 713.103 509.393 715.165C520.621 725.247 525.719 729.6 536.316 738.135C539.638 740.827 542.846 743.405 543.476 743.92C556.88 755.033 574.637 767.578 590.103 776.857C598.18 781.726 613.817 789.631 621.379 792.781C626.648 794.901 628.252 795.588 632.147 797.307C633.35 797.822 634.668 798.223 635.126 798.223C635.584 798.223 636.787 798.567 637.818 799.025C638.849 799.483 641.255 800.285 643.145 800.801C645.036 801.374 647.212 802.061 647.957 802.347C648.702 802.634 652.54 803.493 656.492 804.295C660.444 805.04 663.881 805.842 664.11 806.013C664.511 806.243 667.834 806.644 681.81 807.961C685.82 808.362 691.548 808.362 698.995 807.961C713.201 807.274 719.96 806.243 731.359 803.092C733.249 802.577 735.712 801.946 736.801 801.66C737.889 801.431 740.237 800.629 741.956 799.942C743.674 799.254 745.736 798.51 746.538 798.223C751.694 796.562 767.847 788.428 774.893 783.903C788.239 775.368 801.414 762.881 811.438 749.362C814.188 745.696 816.422 742.546 816.422 742.431C816.422 742.259 817.625 740.14 819.114 737.677C820.546 735.214 822.894 730.631 824.269 727.481C825.701 724.33 827.191 720.951 827.592 720.034C829.253 716.425 833.606 701.99 833.606 700.157C833.606 699.355 834.007 697.58 834.465 696.262C834.924 694.945 835.325 692.883 835.325 691.737C835.325 690.591 835.726 687.613 836.184 685.092C837.272 678.963 837.272 663.326 836.184 655.02C832.976 631.076 824.957 611.543 811.438 594.645C796.66 576.201 776.382 563.484 751.121 556.839C742.93 554.663 738.233 554.204 725.631 554.204C712.914 554.204 706.155 554.892 700.083 556.782C698.594 557.24 696.875 557.641 696.303 557.641C695.673 557.641 692.465 558.558 689.2 559.703C685.935 560.849 682.211 562.109 680.951 562.51C677.113 563.713 662.965 570.301 657.237 573.508C654.315 575.169 651.795 576.544 651.68 576.544C651.509 576.544 650.363 577.232 648.988 578.091C647.671 578.95 646.124 579.924 645.609 580.268C640.453 583.303 618.171 599.056 615.879 601.29C615.421 601.691 612.5 603.982 609.349 606.331C599.44 613.777 595.487 618.302 592.222 625.978C590.905 629.014 590.962 639.267 592.28 642.246C594.857 648.26 595.888 649.807 599.039 653.015C602.418 656.394 609.636 660.748 611.87 660.748C612.443 660.748 613.875 661.149 614.963 661.607C617.712 662.753 624.987 662.695 629.341 661.55C635.756 659.831 640.052 657.311 651.68 648.547C673.218 632.222 688.054 623.229 701.286 618.417C704.895 617.099 708.504 615.725 709.305 615.381C711.826 614.35 720.934 613.147 725.917 613.147C736.514 613.262 748.2 617.214 756.62 623.572C768.878 632.852 775.58 645.74 777.184 663.268C777.699 668.595 777.757 672.261 777.413 674.438C777.127 676.214 776.898 678.963 776.898 680.567C776.898 682.171 776.554 684.577 776.096 686.009C775.637 687.384 774.721 690.477 774.091 692.825C772.315 698.955 766.873 710.067 763.093 715.108C755.073 725.877 745.45 733.61 731.932 739.968C729.411 741.171 726.891 742.431 726.375 742.717C725.802 743.004 725.001 743.233 724.485 743.233C724.027 743.233 722.824 743.577 721.793 744.035C719.387 745.009 714.919 746.269 709.019 747.644C702.489 749.133 682.211 749.076 674.364 747.586C660.043 744.894 645.036 739.281 629.112 730.688C619.259 725.361 606.6 716.54 589.931 703.422C586.723 700.902 583.057 698.095 581.854 697.122C579.678 695.518 567.018 684.233 565.816 682.858C565.529 682.515 562.264 679.536 558.655 676.214C555.047 672.949 551.782 669.97 551.438 669.626C551.037 669.34 548.86 667.221 546.569 664.987C544.22 662.753 535.628 654.962 527.437 647.573C519.246 640.241 510.482 632.394 507.961 630.102C500.228 623.114 495.932 619.62 474.165 602.092C469.869 598.655 461.735 592.698 454.976 588.058C450.05 584.678 440.77 578.434 439.797 577.919C438.765 577.346 436.13 575.742 429.199 571.561C424.044 568.468 402.048 557.641 400.902 557.641C400.616 557.641 398.726 556.839 396.721 555.923C394.773 554.949 392.768 554.204 392.368 554.204C391.967 554.204 391.336 553.918 390.993 553.574C390.649 553.231 389.332 552.715 388.129 552.486C386.926 552.2 382.973 551.111 379.365 549.966C364.701 545.383 345.511 542.691 329.358 542.805C324.89 542.863 320.594 542.977 319.792 543.092Z" fill="white"/>
</svg>
