<svg width="792" height="334" viewBox="0 0 792 334" fill="none" xmlns="http://www.w3.org/2000/svg">
<path fill-rule="evenodd" clip-rule="evenodd" d="M170.006 321.3C163.549 320.041 158.401 318.049 155.561 316.795C148.322 276.452 115.102 252.162 115.102 252.162C107.471 287.34 134.797 309.037 148.691 317.578C135.856 311.579 106.57 301.708 58.8936 306.204C58.8936 306.204 104.008 350.404 153.503 323.359C159.21 325.203 165.205 326.568 168.788 327.31C170.554 327.677 172.261 326.489 172.503 324.723C172.724 323.109 171.622 321.615 170.006 321.3Z" fill="#3E1C1A" fill-opacity="0.7"/>
<path fill-rule="evenodd" clip-rule="evenodd" d="M94.9226 290.601C99.3156 294.026 104.115 297.125 107.007 298.913C108.434 299.794 110.314 299.296 111.101 297.828C111.818 296.488 111.342 294.829 110.029 294.04C104.787 290.888 100.932 287.51 98.8556 285.512C105.648 247.909 84.4826 216.105 84.4826 216.105C66.3588 244.465 83.209 272.128 92.5879 284.015C83.309 274.69 60.8931 256.752 17.7104 245.55C17.7104 245.55 42.8086 298.555 94.9226 290.601Z" fill="#3E1C1A" fill-opacity="0.7"/>
<path fill-rule="evenodd" clip-rule="evenodd" d="M58.7506 246.197C61.4125 250.768 64.5501 255.193 66.4713 257.789C67.4179 259.069 69.2615 259.286 70.4846 258.259C71.6031 257.324 71.774 255.69 70.8949 254.531C67.3842 249.906 65.1819 245.565 64.0588 243.068C83.5632 212.147 76.2291 176.572 76.2291 176.572C50.0057 195.343 55.0037 225.739 59.0451 239.549C54.1741 228.042 40.7582 204.31 6.53516 179.274C6.53516 179.274 9.74578 234.999 58.7506 246.197Z" fill="#3E1C1A" fill-opacity="0.7"/>
<path fill-rule="evenodd" clip-rule="evenodd" d="M41.681 191.956C41.917 197.225 42.6433 202.578 43.1412 205.757C43.3863 207.322 44.922 208.353 46.4845 207.997C47.9134 207.674 48.8262 206.301 48.5856 204.872C47.6211 199.17 47.6863 194.315 47.8515 191.586C79.5666 172.989 89.613 138.069 89.613 138.069C57.589 142.824 47.8785 172.086 45.0377 186.184C46.0675 173.754 45.203 146.588 26.4688 108.81C26.4688 108.81 3.3783 159.752 41.681 191.956Z" fill="#3E1C1A" fill-opacity="0.7"/>
<path fill-rule="evenodd" clip-rule="evenodd" d="M49.3759 148.71C49.2702 150.097 50.3775 151.282 51.7872 151.286C53.0755 151.289 54.1322 150.294 54.2143 149.025C54.5381 143.955 55.5724 139.812 56.2637 137.512C87.1536 127.835 102.793 99.9253 102.793 99.9253C74.4269 97.6954 60.2185 120.828 54.9451 132.334C58.3333 121.899 63.0694 98.4794 54.6516 62.4629C54.6516 62.4629 24.6218 101.517 50.9093 136.612C50.0493 141.167 49.5906 145.892 49.3759 148.71Z" fill="#3E1C1A" fill-opacity="0.7"/>
<path fill-rule="evenodd" clip-rule="evenodd" d="M68.478 96.9996C68.1778 98.3048 69.0615 99.5846 70.4003 99.7859C71.6234 99.9696 72.7724 99.1706 73.032 97.9744C74.0651 93.2017 75.6412 89.4081 76.6282 87.3175C107.378 82.4347 126.237 58.0896 126.237 58.0896C99.5935 52.0075 82.7752 72.0118 76.1156 82.2126C80.8293 72.7669 88.6847 51.1669 85.8397 15.7559C85.8397 15.7559 51.7032 48.6827 71.6673 85.7151C70.1969 89.925 69.0862 94.3522 68.478 96.9996Z" fill="#3E1C1A" fill-opacity="0.7"/>
<path fill-rule="evenodd" clip-rule="evenodd" d="M142.399 0C142.399 0 93.8898 9.91549 92.1313 53.7806C92.1313 53.7806 118.716 43.8451 142.399 0Z" fill="#3E1C1A" fill-opacity="0.7"/>
<path fill-rule="evenodd" clip-rule="evenodd" d="M625.938 321.3C632.396 320.041 637.544 318.049 640.384 316.795C647.623 276.452 680.843 252.162 680.843 252.162C688.474 287.34 661.148 309.037 647.254 317.578C660.089 311.579 689.376 301.708 737.051 306.204C737.051 306.204 691.937 350.404 642.443 323.359C636.736 325.203 630.741 326.568 627.158 327.31C625.391 327.677 623.685 326.489 623.442 324.723C623.22 323.109 624.323 321.615 625.938 321.3Z" fill="#3E1C1A" fill-opacity="0.7"/>
<path fill-rule="evenodd" clip-rule="evenodd" d="M701.02 290.601C696.627 294.026 691.827 297.125 688.935 298.913C687.508 299.794 685.629 299.296 684.842 297.828C684.124 296.488 684.602 294.829 685.913 294.04C691.155 290.888 695.01 287.51 697.088 285.512C690.294 247.909 711.46 216.105 711.46 216.105C729.584 244.465 712.734 272.128 703.355 284.015C712.633 274.69 735.05 256.752 778.232 245.55C778.232 245.55 753.134 298.555 701.02 290.601Z" fill="#3E1C1A" fill-opacity="0.7"/>
<path fill-rule="evenodd" clip-rule="evenodd" d="M737.192 246.197C734.53 250.768 731.392 255.193 729.471 257.789C728.525 259.069 726.681 259.286 725.458 258.259C724.34 257.324 724.168 255.69 725.048 254.531C728.559 249.906 730.761 245.565 731.884 243.068C712.379 212.147 719.714 176.572 719.714 176.572C745.937 195.343 740.939 225.739 736.897 239.549C741.769 228.042 755.185 204.31 789.407 179.274C789.407 179.274 786.197 234.999 737.192 246.197Z" fill="#3E1C1A" fill-opacity="0.7"/>
<path fill-rule="evenodd" clip-rule="evenodd" d="M754.264 191.96C754.028 197.228 753.302 202.582 752.804 205.76C752.559 207.326 751.023 208.356 749.461 208.001C748.031 207.677 747.119 206.304 747.359 204.876C748.324 199.174 748.259 194.319 748.094 191.59C716.378 172.993 706.332 138.073 706.332 138.073C738.356 142.828 748.067 172.089 750.907 186.188C749.878 173.758 750.743 146.591 769.477 108.812C769.477 108.812 792.567 159.755 754.264 191.96Z" fill="#3E1C1A" fill-opacity="0.7"/>
<path fill-rule="evenodd" clip-rule="evenodd" d="M746.568 148.71C746.674 150.097 745.566 151.282 744.156 151.286C742.868 151.289 741.811 150.294 741.729 149.025C741.406 143.955 740.371 139.812 739.68 137.512C708.79 127.835 693.15 99.9253 693.15 99.9253C721.517 97.6954 735.726 120.828 740.998 132.334C737.611 121.899 732.875 98.4794 741.292 62.4629C741.292 62.4629 771.322 101.517 745.034 136.612C745.895 141.167 746.353 145.892 746.568 148.71Z" fill="#3E1C1A" fill-opacity="0.7"/>
<path fill-rule="evenodd" clip-rule="evenodd" d="M727.46 96.9996C727.76 98.3048 726.877 99.5846 725.538 99.7859C724.316 99.9696 723.166 99.1706 722.906 97.9744C721.874 93.2017 720.297 89.4081 719.31 87.3175C688.561 82.4347 669.702 58.0896 669.702 58.0896C696.345 52.0075 713.163 72.0118 719.823 82.2126C715.109 72.7669 707.254 51.1669 710.099 15.7559C710.099 15.7559 744.236 48.6827 724.272 85.7151C725.742 89.925 726.853 94.3522 727.46 96.9996Z" fill="#3E1C1A" fill-opacity="0.7"/>
<path fill-rule="evenodd" clip-rule="evenodd" d="M653.544 0C653.544 0 702.055 9.91549 703.813 53.7806C703.813 53.7806 677.229 43.8451 653.544 0Z" fill="#3E1C1A" fill-opacity="0.7"/>
<path d="M197.633 165.059V102.059H209.783V165.059H197.633ZM157.943 165.059V102.059H170.093V165.059H157.943ZM168.383 137.789V127.979H199.703V137.789H168.383ZM243.701 166.139C239.141 166.139 235.091 165.179 231.551 163.259C228.071 161.279 225.341 158.549 223.361 155.069C221.441 151.529 220.481 147.449 220.481 142.829C220.481 138.089 221.441 133.919 223.361 130.319C225.341 126.659 228.071 123.809 231.551 121.769C235.031 119.669 239.081 118.619 243.701 118.619C248.201 118.619 252.131 119.609 255.491 121.589C258.851 123.569 261.461 126.239 263.321 129.599C265.181 132.959 266.111 136.769 266.111 141.029C266.111 141.629 266.111 142.319 266.111 143.099C266.111 143.819 266.051 144.569 265.931 145.349H229.121V137.969H253.871C253.691 135.029 252.641 132.719 250.721 131.039C248.861 129.359 246.521 128.519 243.701 128.519C241.661 128.519 239.771 128.999 238.031 129.959C236.291 130.859 234.911 132.269 233.891 134.189C232.931 136.109 232.451 138.539 232.451 141.479V144.089C232.451 146.549 232.901 148.709 233.801 150.569C234.761 152.369 236.081 153.779 237.761 154.799C239.441 155.759 241.391 156.239 243.611 156.239C245.831 156.239 247.661 155.759 249.101 154.799C250.601 153.839 251.711 152.609 252.431 151.109H264.851C264.011 153.929 262.601 156.479 260.621 158.759C258.641 161.039 256.211 162.839 253.331 164.159C250.451 165.479 247.241 166.139 243.701 166.139ZM291.362 166.139C287.582 166.139 284.462 165.539 282.002 164.339C279.542 163.079 277.712 161.429 276.512 159.389C275.372 157.289 274.802 154.979 274.802 152.459C274.802 149.699 275.492 147.269 276.872 145.169C278.312 143.069 280.442 141.419 283.262 140.219C286.142 139.019 289.742 138.419 294.062 138.419H305.312C305.312 136.199 305.012 134.369 304.412 132.929C303.812 131.429 302.882 130.319 301.622 129.599C300.362 128.879 298.682 128.519 296.582 128.519C294.302 128.519 292.352 129.029 290.732 130.049C289.172 131.009 288.212 132.509 287.852 134.549H276.062C276.362 131.309 277.412 128.519 279.212 126.179C281.072 123.779 283.502 121.919 286.502 120.599C289.562 119.279 292.952 118.619 296.672 118.619C300.932 118.619 304.622 119.339 307.742 120.779C310.862 122.219 313.262 124.289 314.942 126.989C316.622 129.689 317.462 133.019 317.462 136.979V165.059H307.202L305.852 158.129C305.192 159.329 304.412 160.409 303.512 161.369C302.612 162.329 301.562 163.169 300.362 163.889C299.162 164.609 297.812 165.149 296.312 165.509C294.812 165.929 293.162 166.139 291.362 166.139ZM294.242 156.779C295.802 156.779 297.182 156.509 298.382 155.969C299.642 155.369 300.722 154.589 301.622 153.629C302.522 152.609 303.212 151.469 303.692 150.209C304.232 148.889 304.592 147.479 304.772 145.979V145.889H295.502C293.642 145.889 292.112 146.129 290.912 146.609C289.772 147.029 288.932 147.659 288.392 148.499C287.852 149.339 287.582 150.299 287.582 151.379C287.582 152.579 287.852 153.569 288.392 154.349C288.932 155.129 289.712 155.729 290.732 156.149C291.752 156.569 292.922 156.779 294.242 156.779ZM328.796 165.059V100.259H340.946V165.059H328.796ZM373.22 165.059C370.04 165.059 367.25 164.579 364.85 163.619C362.51 162.599 360.68 160.949 359.36 158.669C358.04 156.329 357.38 153.149 357.38 149.129V129.869H349.64V119.699H357.38L358.73 107.369H369.53V119.699H381.5V129.869H369.53V149.309C369.53 151.349 369.98 152.759 370.88 153.539C371.78 154.319 373.31 154.709 375.47 154.709H381.41V165.059H373.22ZM391.726 165.059V100.259H403.876V126.449C405.376 124.049 407.356 122.159 409.816 120.779C412.336 119.339 415.246 118.619 418.546 118.619C422.326 118.619 425.506 119.429 428.086 121.049C430.666 122.609 432.616 124.889 433.936 127.889C435.256 130.889 435.916 134.609 435.916 139.049V165.059H423.856V140.129C423.856 136.529 423.106 133.769 421.606 131.849C420.106 129.869 417.736 128.879 414.496 128.879C412.516 128.879 410.716 129.359 409.096 130.319C407.476 131.279 406.186 132.689 405.226 134.549C404.326 136.349 403.876 138.509 403.876 141.029V165.059H391.726ZM469.321 166.139C464.761 166.139 460.711 165.119 457.171 163.079C453.631 161.039 450.871 158.249 448.891 154.709C446.911 151.169 445.921 147.119 445.921 142.559C445.921 137.879 446.911 133.769 448.891 130.229C450.871 126.629 453.631 123.809 457.171 121.769C460.711 119.669 464.761 118.619 469.321 118.619C475.141 118.619 480.031 120.149 483.991 123.209C487.951 126.269 490.471 130.469 491.551 135.809H478.681C478.141 133.709 477.001 132.059 475.261 130.859C473.581 129.659 471.571 129.059 469.231 129.059C467.131 129.059 465.241 129.599 463.561 130.679C461.941 131.699 460.651 133.229 459.691 135.269C458.791 137.249 458.341 139.619 458.341 142.379C458.341 144.479 458.611 146.369 459.151 148.049C459.691 149.669 460.441 151.079 461.401 152.279C462.361 153.419 463.501 154.289 464.821 154.889C466.201 155.489 467.671 155.789 469.231 155.789C470.791 155.789 472.201 155.519 473.461 154.979C474.781 154.439 475.891 153.689 476.791 152.729C477.691 151.709 478.321 150.479 478.681 149.039H491.551C490.471 154.259 487.921 158.429 483.901 161.549C479.941 164.609 475.081 166.139 469.321 166.139ZM517.329 166.139C513.549 166.139 510.429 165.539 507.969 164.339C505.509 163.079 503.679 161.429 502.479 159.389C501.339 157.289 500.769 154.979 500.769 152.459C500.769 149.699 501.459 147.269 502.839 145.169C504.279 143.069 506.409 141.419 509.229 140.219C512.109 139.019 515.709 138.419 520.029 138.419H531.279C531.279 136.199 530.979 134.369 530.379 132.929C529.779 131.429 528.849 130.319 527.589 129.599C526.329 128.879 524.649 128.519 522.549 128.519C520.269 128.519 518.319 129.029 516.699 130.049C515.139 131.009 514.179 132.509 513.819 134.549H502.029C502.329 131.309 503.379 128.519 505.179 126.179C507.039 123.779 509.469 121.919 512.469 120.599C515.529 119.279 518.919 118.619 522.639 118.619C526.899 118.619 530.589 119.339 533.709 120.779C536.829 122.219 539.229 124.289 540.909 126.989C542.589 129.689 543.429 133.019 543.429 136.979V165.059H533.169L531.819 158.129C531.159 159.329 530.379 160.409 529.479 161.369C528.579 162.329 527.529 163.169 526.329 163.889C525.129 164.609 523.779 165.149 522.279 165.509C520.779 165.929 519.129 166.139 517.329 166.139ZM520.209 156.779C521.769 156.779 523.149 156.509 524.349 155.969C525.609 155.369 526.689 154.589 527.589 153.629C528.489 152.609 529.179 151.469 529.659 150.209C530.199 148.889 530.559 147.479 530.739 145.979V145.889H521.469C519.609 145.889 518.079 146.129 516.879 146.609C515.739 147.029 514.899 147.659 514.359 148.499C513.819 149.339 513.549 150.299 513.549 151.379C513.549 152.579 513.819 153.569 514.359 154.349C514.899 155.129 515.679 155.729 516.699 156.149C517.719 156.569 518.889 156.779 520.209 156.779ZM554.763 165.059V119.699H565.563L566.733 128.069C567.813 126.089 569.163 124.409 570.783 123.029C572.463 121.649 574.353 120.569 576.453 119.789C578.613 119.009 580.983 118.619 583.563 118.619V131.489H579.423C577.623 131.489 575.943 131.699 574.383 132.119C572.883 132.539 571.563 133.229 570.423 134.189C569.283 135.089 568.413 136.349 567.813 137.969C567.213 139.589 566.913 141.629 566.913 144.089V165.059H554.763ZM612.666 166.139C608.106 166.139 604.056 165.179 600.516 163.259C597.036 161.279 594.306 158.549 592.326 155.069C590.406 151.529 589.446 147.449 589.446 142.829C589.446 138.089 590.406 133.919 592.326 130.319C594.306 126.659 597.036 123.809 600.516 121.769C603.996 119.669 608.046 118.619 612.666 118.619C617.166 118.619 621.096 119.609 624.456 121.589C627.816 123.569 630.426 126.239 632.286 129.599C634.146 132.959 635.076 136.769 635.076 141.029C635.076 141.629 635.076 142.319 635.076 143.099C635.076 143.819 635.016 144.569 634.896 145.349H598.086V137.969H622.836C622.656 135.029 621.606 132.719 619.686 131.039C617.826 129.359 615.486 128.519 612.666 128.519C610.626 128.519 608.736 128.999 606.996 129.959C605.256 130.859 603.876 132.269 602.856 134.189C601.896 136.109 601.416 138.539 601.416 141.479V144.089C601.416 146.549 601.866 148.709 602.766 150.569C603.726 152.369 605.046 153.779 606.726 154.799C608.406 155.759 610.356 156.239 612.576 156.239C614.796 156.239 616.626 155.759 618.066 154.799C619.566 153.839 620.676 152.609 621.396 151.109H633.816C632.976 153.929 631.566 156.479 629.586 158.759C627.606 161.039 625.176 162.839 622.296 164.159C619.416 165.479 616.206 166.139 612.666 166.139ZM196.887 269.139C192.267 269.139 188.217 268.329 184.737 266.709C181.257 265.029 178.557 262.689 176.637 259.689C174.717 256.689 173.757 253.179 173.757 249.159H183.207C183.267 251.439 183.807 253.539 184.827 255.459C185.907 257.319 187.437 258.819 189.417 259.959C191.457 261.039 193.947 261.579 196.887 261.579C199.407 261.579 201.567 261.159 203.367 260.319C205.227 259.479 206.637 258.339 207.597 256.899C208.557 255.399 209.037 253.689 209.037 251.769C209.037 249.549 208.527 247.719 207.507 246.279C206.487 244.839 205.107 243.669 203.367 242.769C201.687 241.809 199.707 240.969 197.427 240.249C195.207 239.529 192.867 238.749 190.407 237.909C185.427 236.289 181.707 234.189 179.247 231.609C176.847 229.029 175.647 225.669 175.647 221.529C175.647 217.989 176.487 214.929 178.167 212.349C179.847 209.709 182.187 207.669 185.187 206.229C188.247 204.729 191.847 203.979 195.987 203.979C200.067 203.979 203.637 204.729 206.697 206.229C209.757 207.729 212.157 209.799 213.897 212.439C215.637 215.079 216.507 218.169 216.507 221.709H206.967C206.967 220.089 206.547 218.499 205.707 216.939C204.867 215.379 203.607 214.119 201.927 213.159C200.247 212.139 198.177 211.629 195.717 211.629C193.677 211.569 191.847 211.899 190.227 212.619C188.607 213.339 187.347 214.389 186.447 215.769C185.547 217.149 185.097 218.799 185.097 220.719C185.097 222.639 185.487 224.199 186.267 225.399C187.107 226.539 188.307 227.529 189.867 228.369C191.427 229.209 193.227 229.989 195.267 230.709C197.367 231.369 199.677 232.119 202.197 232.959C205.317 233.979 208.077 235.239 210.477 236.739C212.937 238.179 214.857 240.069 216.237 242.409C217.677 244.689 218.397 247.629 218.397 251.229C218.397 254.349 217.587 257.259 215.967 259.959C214.347 262.659 211.947 264.879 208.767 266.619C205.587 268.299 201.627 269.139 196.887 269.139ZM249.349 269.139C245.089 269.139 241.249 268.149 237.829 266.169C234.469 264.189 231.799 261.429 229.819 257.889C227.899 254.289 226.939 250.149 226.939 245.469C226.939 240.669 227.929 236.499 229.909 232.959C231.889 229.359 234.589 226.569 238.009 224.589C241.429 222.609 245.269 221.619 249.529 221.619C253.849 221.619 257.689 222.609 261.049 224.589C264.409 226.569 267.049 229.329 268.969 232.869C270.949 236.409 271.939 240.579 271.939 245.379C271.939 250.179 270.949 254.349 268.969 257.889C267.049 261.429 264.379 264.189 260.959 266.169C257.539 268.149 253.669 269.139 249.349 269.139ZM249.349 261.399C251.809 261.399 254.029 260.799 256.009 259.599C258.049 258.399 259.669 256.629 260.869 254.289C262.129 251.889 262.759 248.919 262.759 245.379C262.759 241.839 262.159 238.899 260.959 236.559C259.759 234.159 258.139 232.359 256.099 231.159C254.119 229.959 251.929 229.359 249.529 229.359C247.129 229.359 244.909 229.959 242.869 231.159C240.829 232.359 239.179 234.159 237.919 236.559C236.719 238.899 236.119 241.839 236.119 245.379C236.119 248.919 236.719 251.889 237.919 254.289C239.179 256.629 240.799 258.399 242.779 259.599C244.819 260.799 247.009 261.399 249.349 261.399ZM303.496 269.139C299.116 269.139 295.216 268.149 291.796 266.169C288.376 264.129 285.676 261.339 283.696 257.799C281.776 254.259 280.816 250.149 280.816 245.469C280.816 240.729 281.776 236.589 283.696 233.049C285.676 229.449 288.376 226.659 291.796 224.679C295.216 222.639 299.116 221.619 303.496 221.619C309.016 221.619 313.636 223.059 317.356 225.939C321.076 228.819 323.446 232.719 324.466 237.639H315.106C314.506 234.999 313.126 232.959 310.966 231.519C308.866 230.079 306.346 229.359 303.406 229.359C301.006 229.359 298.786 229.989 296.746 231.249C294.706 232.449 293.056 234.249 291.796 236.649C290.596 238.989 289.996 241.899 289.996 245.379C289.996 247.959 290.356 250.269 291.076 252.309C291.796 254.289 292.756 255.969 293.956 257.349C295.216 258.729 296.656 259.779 298.276 260.499C299.896 261.159 301.606 261.489 303.406 261.489C305.386 261.489 307.156 261.189 308.716 260.589C310.336 259.929 311.686 258.969 312.766 257.709C313.906 256.449 314.686 254.949 315.106 253.209H324.466C323.446 258.009 321.076 261.879 317.356 264.819C313.636 267.699 309.016 269.139 303.496 269.139ZM335.627 268.059V222.699H344.627V268.059H335.627ZM340.217 214.149C338.477 214.149 337.037 213.609 335.897 212.529C334.817 211.449 334.277 210.069 334.277 208.389C334.277 206.769 334.817 205.449 335.897 204.429C337.037 203.349 338.477 202.809 340.217 202.809C341.897 202.809 343.307 203.349 344.447 204.429C345.587 205.449 346.157 206.769 346.157 208.389C346.157 210.069 345.587 211.449 344.447 212.529C343.307 213.609 341.897 214.149 340.217 214.149ZM372.527 269.139C368.807 269.139 365.717 268.509 363.257 267.249C360.797 265.989 358.967 264.309 357.767 262.209C356.567 260.049 355.967 257.739 355.967 255.279C355.967 252.279 356.747 249.729 358.307 247.629C359.867 245.469 362.087 243.819 364.967 242.679C367.847 241.539 371.297 240.969 375.317 240.969H387.107C387.107 238.329 386.717 236.139 385.937 234.399C385.157 232.659 383.987 231.369 382.427 230.529C380.927 229.629 379.007 229.179 376.667 229.179C373.967 229.179 371.657 229.839 369.737 231.159C367.817 232.419 366.617 234.309 366.137 236.829H357.137C357.497 233.649 358.577 230.949 360.377 228.729C362.237 226.449 364.607 224.709 367.487 223.509C370.367 222.249 373.427 221.619 376.667 221.619C380.927 221.619 384.497 222.369 387.377 223.869C390.257 225.369 392.417 227.499 393.857 230.259C395.357 232.959 396.107 236.199 396.107 239.979V268.059H388.277L387.557 260.409C386.897 261.609 386.117 262.749 385.217 263.829C384.317 264.909 383.237 265.839 381.977 266.619C380.777 267.399 379.367 267.999 377.747 268.419C376.187 268.899 374.447 269.139 372.527 269.139ZM374.237 261.849C376.157 261.849 377.897 261.459 379.457 260.679C381.017 259.899 382.337 258.849 383.417 257.529C384.557 256.149 385.397 254.619 385.937 252.939C386.537 251.199 386.867 249.429 386.927 247.629V247.359H376.217C373.637 247.359 371.537 247.689 369.917 248.349C368.357 248.949 367.217 249.789 366.497 250.869C365.777 251.949 365.417 253.209 365.417 254.649C365.417 256.149 365.747 257.439 366.407 258.519C367.127 259.539 368.147 260.349 369.467 260.949C370.787 261.549 372.377 261.849 374.237 261.849ZM407.594 268.059V203.259H416.594V268.059H407.594ZM448.379 268.059L471.509 205.059H481.319L504.449 268.059H494.819L476.369 215.859L457.829 268.059H448.379ZM458.819 252.489L461.339 245.289H490.949L493.469 252.489H458.819ZM512.975 287.859V222.699H521.075L521.975 229.719C522.935 228.339 524.135 227.049 525.575 225.849C527.015 224.589 528.725 223.569 530.705 222.789C532.745 222.009 535.115 221.619 537.815 221.619C542.135 221.619 545.915 222.669 549.155 224.769C552.455 226.869 555.005 229.719 556.805 233.319C558.665 236.859 559.595 240.909 559.595 245.469C559.595 250.029 558.665 254.109 556.805 257.709C554.945 261.249 552.365 264.039 549.065 266.079C545.825 268.119 542.045 269.139 537.725 269.139C534.185 269.139 531.065 268.449 528.365 267.069C525.665 265.629 523.535 263.649 521.975 261.129V287.859H512.975ZM536.285 261.309C539.045 261.309 541.475 260.649 543.575 259.329C545.735 258.009 547.415 256.149 548.615 253.749C549.875 251.349 550.505 248.559 550.505 245.379C550.505 242.199 549.875 239.439 548.615 237.099C547.415 234.699 545.735 232.839 543.575 231.519C541.475 230.139 539.045 229.449 536.285 229.449C533.465 229.449 530.975 230.139 528.815 231.519C526.715 232.839 525.065 234.699 523.865 237.099C522.665 239.439 522.065 242.199 522.065 245.379C522.065 248.559 522.665 251.349 523.865 253.749C525.065 256.149 526.715 258.009 528.815 259.329C530.975 260.649 533.465 261.309 536.285 261.309ZM570.104 287.859V222.699H578.204L579.104 229.719C580.064 228.339 581.264 227.049 582.704 225.849C584.144 224.589 585.854 223.569 587.834 222.789C589.874 222.009 592.244 221.619 594.944 221.619C599.264 221.619 603.044 222.669 606.284 224.769C609.584 226.869 612.134 229.719 613.934 233.319C615.794 236.859 616.724 240.909 616.724 245.469C616.724 250.029 615.794 254.109 613.934 257.709C612.074 261.249 609.494 264.039 606.194 266.079C602.954 268.119 599.174 269.139 594.854 269.139C591.314 269.139 588.194 268.449 585.494 267.069C582.794 265.629 580.664 263.649 579.104 261.129V287.859H570.104ZM593.414 261.309C596.174 261.309 598.604 260.649 600.704 259.329C602.864 258.009 604.544 256.149 605.744 253.749C607.004 251.349 607.634 248.559 607.634 245.379C607.634 242.199 607.004 239.439 605.744 237.099C604.544 234.699 602.864 232.839 600.704 231.519C598.604 230.139 596.174 229.449 593.414 229.449C590.594 229.449 588.104 230.139 585.944 231.519C583.844 232.839 582.194 234.699 580.994 237.099C579.794 239.439 579.194 242.199 579.194 245.379C579.194 248.559 579.794 251.349 580.994 253.749C582.194 256.149 583.844 258.009 585.944 259.329C588.104 260.649 590.594 261.309 593.414 261.309Z" fill="#3D253B"/>
</svg>
