<svg width="1060" height="2684" viewBox="0 0 1060 2684" fill="none" xmlns="http://www.w3.org/2000/svg">
<path d="M782 15C840.03 15 885.062 14.9684 920.061 19.6738C955.491 24.4373 982.877 34.301 1004.29 55.7119C1025.7 77.1228 1035.56 104.509 1040.33 139.939C1045.03 174.938 1045 219.97 1045 278V1882C1045 1940.03 1045.03 1985.06 1040.33 2020.06C1035.56 2055.49 1025.7 2082.88 1004.29 2104.29C982.877 2125.7 955.491 2135.56 920.061 2140.33C885.062 2145.03 840.03 2145 782 2145H278C219.97 2145 174.938 2145.03 139.939 2140.33C104.509 2135.56 77.1228 2125.7 55.7119 2104.29C34.301 2082.88 24.4373 2055.49 19.6738 2020.06C14.9684 1985.06 15 1940.03 15 1882V278C15 219.97 14.9684 174.938 19.6738 139.939C24.4373 104.509 34.301 77.1228 55.7119 55.7119C77.1228 34.301 104.509 24.4373 139.939 19.6738C174.938 14.9684 219.97 15 278 15H782Z" fill="#3D253B" stroke="#51414F" stroke-width="30"/>
<path d="M85.8423 129.455C84.1856 129.455 82.739 129.233 81.5023 128.79C80.289 128.347 79.3206 127.647 78.5973 126.69C77.8973 125.71 77.454 124.438 77.2673 122.875H83.2173C83.3806 123.412 83.684 123.832 84.1273 124.135C84.5706 124.415 85.2006 124.555 86.0173 124.555C86.7873 124.555 87.4523 124.368 88.0123 123.995C88.5956 123.622 89.0506 122.992 89.3773 122.105C89.7273 121.218 89.9256 119.958 89.9723 118.325C89.4123 119.142 88.6306 119.713 87.6273 120.04C86.624 120.367 85.5623 120.53 84.4423 120.53C82.809 120.53 81.409 120.215 80.2423 119.585C79.099 118.955 78.224 118.068 77.6173 116.925C77.034 115.758 76.7423 114.405 76.7423 112.865V112.515C76.7423 110.812 77.1273 109.318 77.8973 108.035C78.6673 106.752 79.7523 105.772 81.1523 105.095C82.5523 104.395 84.174 104.045 86.0173 104.045C88.1873 104.045 90.0073 104.442 91.4773 105.235C92.9706 106.005 94.0906 107.265 94.8373 109.015C95.6073 110.742 95.9923 113.028 95.9923 115.875V116.575C95.9923 119.678 95.5606 122.175 94.6973 124.065C93.8573 125.932 92.6673 127.297 91.1273 128.16C89.6106 129.023 87.849 129.455 85.8423 129.455ZM86.3673 115.98C87.394 115.98 88.199 115.688 88.7823 115.105C89.389 114.498 89.6923 113.67 89.6923 112.62V112.305C89.6923 111.302 89.3773 110.497 88.7473 109.89C88.1406 109.26 87.3473 108.945 86.3673 108.945C85.3406 108.945 84.524 109.248 83.9173 109.855C83.334 110.438 83.0423 111.243 83.0423 112.27V112.62C83.0423 113.67 83.334 114.498 83.9173 115.105C84.524 115.688 85.3406 115.98 86.3673 115.98ZM103.159 129.455C102.552 129.455 101.992 129.303 101.479 129C100.966 128.72 100.557 128.335 100.254 127.845C99.9741 127.332 99.8341 126.748 99.8341 126.095C99.8341 125.185 100.149 124.415 100.779 123.785C101.432 123.132 102.226 122.805 103.159 122.805C104.092 122.805 104.886 123.132 105.539 123.785C106.192 124.415 106.519 125.185 106.519 126.095C106.519 126.748 106.367 127.332 106.064 127.845C105.761 128.335 105.352 128.72 104.839 129C104.349 129.303 103.789 129.455 103.159 129.455ZM103.159 116.645C102.552 116.645 101.992 116.505 101.479 116.225C100.966 115.922 100.557 115.525 100.254 115.035C99.9741 114.522 99.8341 113.938 99.8341 113.285C99.8341 112.375 100.149 111.605 100.779 110.975C101.432 110.322 102.226 109.995 103.159 109.995C104.092 109.995 104.886 110.322 105.539 110.975C106.192 111.605 106.519 112.375 106.519 113.285C106.519 113.938 106.367 114.522 106.064 115.035C105.761 115.525 105.352 115.922 104.839 116.225C104.349 116.505 103.789 116.645 103.159 116.645ZM120.46 129V124.24H109.47V119.935L120.88 104.5H126.76V119.06H129.42V124.24H126.76V129H120.46ZM115.105 119.06H120.46V111.465L115.105 119.06ZM132.045 129V123.82H137.435V110.835L132.045 114.685V108.385L137.47 104.5H143.77V123.82H148.145V129H132.045Z" fill="#FFFBF7"/>
<path d="M958.973 117.975V104.362C958.973 102.751 957.667 101.445 956.056 101.445H932.72C931.109 101.445 929.803 102.751 929.803 104.362V117.975C929.803 119.586 931.109 120.892 932.72 120.892H956.056C957.667 120.892 958.973 119.586 958.973 117.975Z" fill="#FFFBF7" fill-opacity="0.24"/>
<path d="M957.023 116.999V105.331C957.023 104.257 956.153 103.387 955.079 103.387H933.688C932.614 103.387 931.743 104.257 931.743 105.331V116.999C931.743 118.073 932.614 118.944 933.688 118.944H955.079C956.153 118.944 957.023 118.073 957.023 116.999Z" fill="#FFFBF7"/>
<path d="M964.805 115.061V107.283C964.805 106.209 963.934 105.338 962.86 105.338C961.786 105.338 960.915 106.209 960.915 107.283V115.061C960.915 116.135 961.786 117.006 962.86 117.006C963.934 117.006 964.805 116.135 964.805 115.061Z" fill="#FFFBF7" fill-opacity="0.24"/>
<path d="M848.438 92.1875C847.224 92.1875 846.25 93.1616 846.25 94.375V120.625C846.25 121.838 847.224 122.812 848.438 122.812H850.625C851.838 122.812 852.813 121.838 852.813 120.625V94.375C852.813 93.1616 851.838 92.1875 850.625 92.1875H848.438ZM839.688 98.75C838.474 98.75 837.5 99.7241 837.5 100.938V120.625C837.5 121.838 838.474 122.812 839.688 122.812H841.875C843.088 122.812 844.063 121.838 844.063 120.625V100.938C844.063 99.7241 843.088 98.75 841.875 98.75H839.688ZM830.938 105.312C829.724 105.312 828.75 106.287 828.75 107.5V120.625C828.75 121.838 829.724 122.812 830.938 122.812H833.125C834.338 122.812 835.313 121.838 835.313 120.625V107.5C835.313 106.287 834.338 105.312 833.125 105.312H830.938ZM822.188 111.875C820.974 111.875 820 112.849 820 114.062V120.625C820 121.838 820.974 122.812 822.188 122.812H824.375C825.588 122.812 826.563 121.838 826.563 120.625V114.062C826.563 112.849 825.588 111.875 824.375 111.875H822.188Z" fill="#FFFBF7"/>
<path d="M892.501 98.3574C886.776 98.3574 881.042 100.4 876.761 104.501L875.676 105.552C874.805 106.381 874.779 107.765 875.608 108.637C876.445 109.509 877.83 109.534 878.701 108.705L879.795 107.663C886.545 101.194 898.457 101.194 905.207 107.663L906.301 108.705C907.173 109.534 908.557 109.509 909.394 108.637C910.223 107.765 910.198 106.381 909.326 105.552L908.241 104.493C903.96 100.4 898.226 98.3574 892.501 98.3574ZM892.433 107.125C888.998 107.15 885.588 108.5 883.23 111.089L882.136 112.294C881.743 112.721 881.53 113.285 881.564 113.866C881.589 114.448 881.846 114.994 882.281 115.387C882.709 115.781 883.273 115.986 883.854 115.951C884.435 115.926 884.982 115.669 885.375 115.234L886.46 114.037C889.254 110.97 895.56 110.765 898.542 114.046L899.636 115.234C900.021 115.669 900.568 115.926 901.149 115.951C901.73 115.986 902.294 115.781 902.729 115.387C903.157 114.994 903.413 114.448 903.439 113.866C903.464 113.294 903.259 112.721 902.866 112.294L901.772 111.098C899.32 108.398 895.859 107.099 892.433 107.125ZM892.501 115.875C891.382 115.875 890.262 116.302 889.408 117.156C887.699 118.865 887.699 121.634 889.408 123.343C891.117 125.052 893.885 125.052 895.594 123.343C897.303 121.634 897.303 118.865 895.594 117.156C894.74 116.302 893.621 115.875 892.501 115.875Z" fill="#FFFBF7"/>
<rect x="432" y="90" width="196" height="38" rx="19" fill="#51414F"/>
<rect x="30" y="580" width="1000" height="1000" fill="#3D253B"/>
<rect x="30" y="580" width="1000" height="1000" fill="#3D253B"/>
<path d="M525.645 902.447C517.625 903.101 510.636 905.339 503.648 909.47C498.209 912.705 490.774 919.797 486.85 925.546C483.648 930.227 480.481 938.041 479.552 943.549C479.414 944.479 479.104 945.959 478.898 946.82C478.347 949.229 478.416 958.179 479.07 961.415C480.343 968.025 481.238 970.813 483.648 975.942C485.645 980.108 486.746 981.76 490.636 986.51C495.042 991.846 501.17 996.803 506.781 999.557C512.254 1002.21 517.177 1003.72 522.926 1004.51C533.666 1005.93 543.856 1004.2 553.666 999.282C557.625 997.319 560.413 995.288 565.474 990.779C566.988 989.402 573.529 981.553 573.529 981.071C573.529 980.934 573.942 980.176 574.493 979.385C575.009 978.627 575.732 977.285 576.111 976.424C576.455 975.564 576.971 974.634 577.212 974.324C577.453 974.049 577.66 973.464 577.66 973.051C577.66 972.672 577.798 972.259 577.97 972.156C578.624 971.743 580.517 964.513 581.102 960.245C581.791 955.46 581.24 945.374 580.104 941.484C578.486 936.01 577.866 934.427 575.732 930.193C574.149 926.991 572.427 924.444 569.742 921.208C566.713 917.559 566.403 917.215 564.407 915.666C563.477 914.909 561.894 913.601 560.895 912.705C557.109 909.332 549.054 905.373 542.892 903.859C537.177 902.447 531.188 901.965 525.645 902.447ZM535.215 928.609C541.411 930.055 546.678 933.394 550.19 938.041C554.079 943.24 555.422 947.164 555.422 953.704C555.388 958.627 554.768 961.243 552.496 965.822C551.153 968.507 548.09 972.018 545.095 974.29C537.522 980.073 526.299 980.865 517.9 976.218C515.593 974.944 511.91 971.915 510.086 969.78C508.158 967.508 506.747 964.927 505.507 961.45C504.612 958.902 504.543 958.317 504.543 953.704C504.543 949.092 504.612 948.506 505.507 945.959C507.435 940.52 509.741 937.146 513.976 933.704C519.793 928.988 528.193 926.957 535.215 928.609Z" fill="white"/>
<path d="M398.996 982.207C398.996 982.998 404.848 994.358 407.327 998.489C408.153 999.832 409.186 1001.55 409.668 1002.34C411.733 1005.75 412.8 1007.44 416.587 1012.91C420.201 1018.11 422.508 1021.21 427.465 1027.58C432.663 1034.15 446.157 1048.16 452.732 1053.74C456.105 1056.63 456.794 1057.18 461.131 1060.38C467.775 1065.34 472.698 1068.4 481.441 1073.15C489.6 1077.56 500.65 1081.59 509.325 1083.28C521.304 1085.65 528.43 1085.99 539.962 1084.86C546.812 1084.2 556.795 1082.21 561.649 1080.56C568.362 1078.25 571.15 1077.11 577.14 1074.12C584.748 1070.3 595.522 1063.72 600.445 1059.83C602.2 1058.42 604.954 1056.25 606.572 1054.98C609.361 1052.78 613.973 1048.51 619.653 1042.86C629.981 1032.64 642.614 1016.08 650.119 1002.93C651.564 1000.38 653.286 997.422 653.905 996.389C656.556 991.914 661.341 982.172 661.031 981.862C660.48 981.312 652.459 982.792 647.709 984.375C645.23 985.167 643.096 985.924 642.889 986.062C642.717 986.2 640.927 987.129 638.931 988.162C635.316 989.986 629.912 993.842 624.61 998.317C617.175 1004.65 613.664 1007.51 610.359 1010.06C606.297 1013.15 598.379 1018.59 594.558 1020.86C593.181 1021.69 590.772 1023.14 589.223 1024.03C587.708 1024.96 584.644 1026.65 582.476 1027.78C580.307 1028.95 578.173 1030.09 577.759 1030.33C575.935 1031.47 564.3 1036.22 559.756 1037.7C552.527 1040.04 549.635 1040.73 544.265 1041.52C543.026 1041.69 541.029 1041.97 539.79 1042.17C536.141 1042.72 518.654 1042.59 516.21 1042C515.074 1041.73 513.593 1041.52 512.939 1041.48C511.666 1041.48 507.776 1040.73 504.781 1039.9C496.657 1037.7 495.245 1037.25 489.462 1034.91C479.445 1030.88 466.57 1023.86 455.796 1016.53C450.46 1012.91 442.164 1006.54 438.102 1002.9C429.53 995.322 423.988 990.813 421.096 989.091C416.002 986.062 408.291 983.067 403.643 982.31C402.507 982.103 400.993 981.862 400.304 981.725C399.134 981.518 398.996 981.587 398.996 982.207Z" fill="white"/>
<path d="M414.49 1098.83C414.008 1098.9 412.322 1099.14 410.704 1099.35C403.199 1100.28 396.142 1102 389.877 1104.41C388.948 1104.79 387.295 1105.41 386.263 1105.82C380.893 1107.85 369.602 1114.43 365.471 1117.91C356.348 1125.58 349.911 1132.98 345.574 1140.8C344.472 1142.79 341.271 1149.27 340.651 1150.78C340.41 1151.33 340.031 1152.19 339.859 1152.67C338.379 1156.25 336.21 1164.76 335.453 1170.06C334.696 1175.39 334.455 1183.72 334.937 1188.61C335.694 1196.19 337.932 1205.62 340.1 1210.33C340.445 1211.09 341.167 1212.71 341.649 1213.88C343.784 1218.97 349.429 1226.93 354.627 1232.19C362.717 1240.42 372.356 1245.86 385.402 1249.58C391.667 1251.37 401.031 1252.02 409.327 1251.19C418.243 1250.33 431.668 1245.86 441.341 1240.56C442.58 1239.87 444.405 1238.87 445.437 1238.29C448.329 1236.7 461.066 1228.1 464.784 1225.27C475.524 1217.01 477.624 1215.15 479.207 1212.4C480.756 1209.68 481.273 1207.82 481.514 1204.27C481.686 1201.49 481.583 1200.63 480.963 1198.59C478.932 1192.05 473.768 1187.24 467.503 1186.06C461.961 1185 456.384 1186.41 452.081 1189.95C443.751 1196.87 431.014 1205.62 423.957 1209.3C419.103 1211.85 411.702 1214.74 408.501 1215.39C407.537 1215.57 404.921 1215.81 402.717 1215.91C398.277 1216.12 394.456 1215.43 390.049 1213.71C383.061 1210.95 376.899 1205.24 373.87 1198.7C366.813 1183.45 370.359 1163.69 382.614 1150.33C384.404 1148.37 389.74 1144.14 392.287 1142.62C396.452 1140.14 402.786 1137.32 405.712 1136.63C406.091 1136.53 407.193 1136.25 408.122 1135.98C412.081 1134.88 413.974 1134.67 420.687 1134.5C427.985 1134.36 427.571 1134.33 435.661 1136.01C437.004 1136.29 438.381 1136.49 438.759 1136.49C439.138 1136.49 439.758 1136.7 440.136 1136.98C440.515 1137.22 441.203 1137.53 441.685 1137.63C442.649 1137.84 444.37 1138.42 446.057 1139.14C446.642 1139.39 447.331 1139.59 447.606 1139.59C448.432 1139.59 461.066 1145.96 464.061 1147.89C465.679 1148.96 468.329 1150.61 469.947 1151.61C471.565 1152.57 474.973 1155.05 477.521 1157.08C480.068 1159.11 483.855 1162.17 485.92 1163.83C488.02 1165.51 491.256 1168.3 493.149 1170.02C495.042 1171.74 497.59 1174.09 498.829 1175.19C500.068 1176.32 502.065 1178.22 503.304 1179.39C504.543 1180.52 507.573 1183.31 510.017 1185.55C512.495 1187.82 515.421 1190.51 516.557 1191.57C517.693 1192.67 520.241 1194.98 522.237 1196.74C524.234 1198.49 527.022 1201 528.434 1202.24C535.181 1208.3 538.244 1210.92 544.613 1216.05C546.609 1217.67 548.537 1219.21 548.916 1219.52C556.971 1226.2 567.642 1233.74 576.937 1239.32C581.791 1242.24 591.188 1247 595.732 1248.89C598.899 1250.16 599.863 1250.58 602.204 1251.61C602.927 1251.92 603.719 1252.16 603.994 1252.16C604.269 1252.16 604.992 1252.37 605.612 1252.64C606.232 1252.92 607.677 1253.4 608.813 1253.71C609.949 1254.05 611.257 1254.47 611.705 1254.64C612.152 1254.81 614.459 1255.33 616.834 1255.81C619.209 1256.26 621.275 1256.74 621.413 1256.84C621.653 1256.98 623.65 1257.22 632.05 1258.01C634.459 1258.25 637.902 1258.25 642.377 1258.01C650.914 1257.6 654.976 1256.98 661.826 1255.08C662.962 1254.77 664.442 1254.4 665.096 1254.22C665.751 1254.09 667.162 1253.6 668.195 1253.19C669.227 1252.78 670.467 1252.33 670.949 1252.16C674.047 1251.16 683.754 1246.27 687.988 1243.55C696.009 1238.42 703.927 1230.92 709.951 1222.79C711.603 1220.59 712.946 1218.7 712.946 1218.63C712.946 1218.53 713.669 1217.25 714.564 1215.77C715.424 1214.29 716.836 1211.54 717.662 1209.65C718.522 1207.75 719.417 1205.72 719.658 1205.17C720.657 1203 723.273 1194.33 723.273 1193.22C723.273 1192.74 723.514 1191.68 723.789 1190.88C724.065 1190.09 724.306 1188.85 724.306 1188.16C724.306 1187.48 724.547 1185.69 724.822 1184.17C725.476 1180.49 725.476 1171.09 724.822 1166.1C722.894 1151.71 718.075 1139.97 709.951 1129.82C701.069 1118.73 688.883 1111.09 673.702 1107.1C668.78 1105.79 665.957 1105.51 658.384 1105.51C650.742 1105.51 646.68 1105.93 643.031 1107.06C642.136 1107.34 641.103 1107.58 640.759 1107.58C640.38 1107.58 638.452 1108.13 636.49 1108.82C634.528 1109.51 632.29 1110.26 631.533 1110.5C629.227 1111.23 620.724 1115.19 617.282 1117.11C615.526 1118.11 614.011 1118.94 613.943 1118.94C613.839 1118.94 613.151 1119.35 612.325 1119.87C611.533 1120.38 610.603 1120.97 610.294 1121.18C607.195 1123 593.805 1132.47 592.428 1133.81C592.152 1134.05 590.397 1135.43 588.503 1136.84C582.548 1141.31 580.173 1144.03 578.21 1148.65C577.419 1150.47 577.453 1156.63 578.245 1158.42C579.794 1162.04 580.414 1162.97 582.307 1164.89C584.338 1166.92 588.675 1169.54 590.018 1169.54C590.362 1169.54 591.223 1169.78 591.877 1170.06C593.529 1170.75 597.901 1170.71 600.517 1170.02C604.373 1168.99 606.954 1167.48 613.943 1162.21C626.886 1152.4 635.802 1146.99 643.754 1144.1C645.922 1143.31 648.091 1142.48 648.573 1142.28C650.088 1141.66 655.561 1140.93 658.556 1140.93C664.924 1141 671.947 1143.38 677.007 1147.2C684.374 1152.78 688.401 1160.52 689.365 1171.06C689.675 1174.26 689.71 1176.46 689.503 1177.77C689.331 1178.84 689.193 1180.49 689.193 1181.45C689.193 1182.42 688.987 1183.86 688.711 1184.72C688.436 1185.55 687.885 1187.41 687.506 1188.82C686.439 1192.5 683.169 1199.18 680.897 1202.21C676.078 1208.68 670.294 1213.33 662.17 1217.15C660.656 1217.87 659.141 1218.63 658.831 1218.8C658.487 1218.97 658.005 1219.11 657.695 1219.11C657.42 1219.11 656.697 1219.32 656.077 1219.59C654.632 1220.18 651.947 1220.94 648.401 1221.76C644.477 1222.66 632.29 1222.62 627.574 1221.73C618.968 1220.11 609.949 1216.74 600.379 1211.57C594.459 1208.37 586.851 1203.07 576.834 1195.19C574.906 1193.67 572.703 1191.99 571.98 1191.4C570.672 1190.44 563.064 1183.65 562.341 1182.83C562.169 1182.62 560.207 1180.83 558.038 1178.84C555.869 1176.87 553.907 1175.08 553.701 1174.88C553.46 1174.7 552.152 1173.43 550.775 1172.09C549.363 1170.75 544.2 1166.06 539.277 1161.62C534.354 1157.22 529.088 1152.5 527.573 1151.12C522.926 1146.92 520.344 1144.82 507.263 1134.29C504.681 1132.23 499.793 1128.65 495.731 1125.86C492.77 1123.83 487.194 1120.07 486.608 1119.76C485.989 1119.42 484.405 1118.46 480.24 1115.94C477.142 1114.08 463.923 1107.58 463.235 1107.58C463.063 1107.58 461.927 1107.1 460.722 1106.55C459.551 1105.96 458.346 1105.51 458.105 1105.51C457.865 1105.51 457.486 1105.34 457.279 1105.13C457.073 1104.93 456.281 1104.62 455.558 1104.48C454.835 1104.31 452.46 1103.65 450.291 1102.97C441.479 1100.21 429.947 1098.59 420.239 1098.66C417.554 1098.7 414.972 1098.77 414.49 1098.83Z" fill="white"/>
</svg>
