<svg xmlns="http://www.w3.org/2000/svg" viewBox="0 0 315.75 384.78"><defs><style>.a{isolation:isolate;}.b{opacity:0.31;}.c{fill:#d8d3cf;}.d{fill:#b2cdc1;}.e{mix-blend-mode:overlay;}.f{opacity:0.51;}.g,.h,.i,.o,.v{fill:none;stroke-miterlimit:10;}.g,.h{stroke:#d8d3cf;}.g,.v{stroke-width:1.08px;}.h{stroke-width:0.81px;}.i{stroke:#b2cdc1;stroke-width:2.05px;}.i,.o{stroke-linecap:round;}.j{fill:#863c3e;}.k{fill:#3e1c1a;}.l{fill:#ffa288;}.m{fill:#d66956;}.n{fill:#e7786b;opacity:0.63;}.o{stroke:#000;stroke-width:0.54px;}.p{fill:#ffe8d8;}.q,.t,.u{mix-blend-mode:multiply;}.q{opacity:0.38;}.r,.u{fill:#d8c7bc;}.s,.t{fill:#6e7dd6;}.t{opacity:0.44;}.u{opacity:0.28;}.v{stroke:#fff;}</style></defs><g class="a"><g class="b"><path class="c" d="M270.69,216.4c-14.21-15.62-29-32.22-33.65-52.82-8.25-36.23,16.65-75.8,2.36-110.1a51.81,51.81,0,0,0-82.51-18.55c-13.18,11.89-19.3,29.46-26.18,45.82a354.12,354.12,0,0,1-25.19,48.91c-5.72,9.25-12,18.4-20.54,25.14C74.67,162.94,61.82,167,50.12,173,24.66,186,3.62,210.15.42,238.55s12.32,57.22,35.41,74.32,52.64,23.74,81.37,23.55c23.39-.16,47-4.67,67.8-15.36,7.89-4.06,15.41-9,23.87-11.71,9.33-3,19.36-3.09,28.82-5.66a56.77,56.77,0,0,0,34.16-83.31"/><path class="c" d="M90.08,55.85c-9.71-13.5-9.42-33.36.68-46.57C95.1,3.59,102-1.1,109,.23c4.52.85,8.28,4.07,11,7.78a32.71,32.71,0,0,1,3.29,32.43A32.71,32.71,0,0,1,96.51,59"/><path class="c" d="M299.28,221.4a40,40,0,0,1-13.64-27.28,10.41,10.41,0,0,1,1-6.22c2.08-3.34,6.82-3.78,10.64-2.89,11.16,2.59,19.46,14.17,18.33,25.57-.59,5.94-5.76,12.61-11.35,10.51"/></g><path class="d" d="M39.27,347.79c-15.1-8-23.29-18-28.65-34.25-1.27-3.85-2-8.68,1-11.45,3.18-3,8.34-1.53,12.17.53a54.86,54.86,0,0,1,18,15.5c6.14,8.23,11.28,19.14,21.39,20.94a4.17,4.17,0,0,0,2.75-.22c2.47-1.37.86-5.1-.7-7.45A34.2,34.2,0,0,1,59.81,317a5.3,5.3,0,0,1,.17-2.77A4.38,4.38,0,0,1,63.21,312c4.84-1,9.56,2,13.41,5.09,9.81,7.93,23.43,21.08,30.19,31.73"/><path class="d" d="M139.34,258.1A70.87,70.87,0,0,1,104,233.6c-4.22-5.52-7.7-11.92-8.13-18.85-.25-3.88,1.25-8.65,5.08-9.36,2.77-.52,5.36,1.38,7.47,3.25a109.63,109.63,0,0,1,32,49.7"/><path class="d" d="M57.85,276.45c-7.16-1.47-14.41-3-20.92-6.31s-12.29-8.72-14.44-15.7c-.86-2.77-1-6,.62-8.36,2.1-3,6.33-3.51,9.94-3,7.65,1.07,14.59,5.58,19.4,11.63s7.59,13.52,8.83,21.14"/><path class="d" d="M69.08,280.77a46.57,46.57,0,0,1-4.29-12.53c-1.24-5.88-1.65-12.52,1.87-17.38a6.05,6.05,0,0,1,4.4-2.81,6,6,0,0,1,3.06.91A13.7,13.7,0,0,1,81,259.6c.33,4-1.17,8-3.19,11.53s-4.57,6.69-6.62,10.18"/><path class="d" d="M79.83,291.68A64.58,64.58,0,0,0,66,289.5c-4.68-.05-9.5,1-13.24,3.81a3.44,3.44,0,0,0-1.53,2,3.13,3.13,0,0,0,.76,2.31,9.81,9.81,0,0,0,7.66,3.52,22.24,22.24,0,0,0,8.46-1.85c3.67-1.43,7.41-3.37,9.4-6.77"/><path class="d" d="M96.28,303.77c-1.44-4.21-2.9-8.47-3.31-12.9s.33-9.12,2.94-12.72a2.7,2.7,0,0,1,1.29-1.1,2.53,2.53,0,0,1,2,.4c2.46,1.42,4,4.1,4.74,6.83a20.74,20.74,0,0,1-5,19.87"/><path class="d" d="M32.81,251.56c2.16,8.93,11.08,14.46,18,19.6,7.67,5.72,15.5,11.22,23.29,16.77,15.51,11.06,31,22.35,44.52,35.83a145.89,145.89,0,0,1,20.16,24.72c.5.78,1.74.06,1.24-.72-10.07-15.75-23.47-28.94-37.92-40.66-14.75-12-30.54-22.52-45.86-33.71-4.31-3.15-8.66-6.28-12.78-9.67s-8-7.27-9.25-12.54c-.21-.9-1.59-.52-1.38.38Z"/><g class="e"><path class="d" d="M63.87,329.15A19.31,19.31,0,0,1,75.82,316.4c-3.7-2.87-8.1-5.42-12.61-4.45A4.38,4.38,0,0,0,60,314.18a5.3,5.3,0,0,0-.17,2.77A34.21,34.21,0,0,0,63.87,329.15Z"/><path class="d" d="M38.59,342.09c-5.54-6.31-11-13-15.12-20.37-2.72-4.84-5.72-11.09-3.87-16.74a9.73,9.73,0,0,1,1.92-3.43c-3.42-1.37-7.32-1.87-9.9.54-3,2.77-2.27,7.6-1,11.45,5.36,16.25,13.55,26.21,28.65,34.25l4.45.07C41.94,346,40.24,344,38.59,342.09Z"/><path class="d" d="M130.86,240c1.78,2.62,3.7,5.13,5.65,7.61a110.56,110.56,0,0,0-13.09-22.71C122.68,228.85,129.42,237.91,130.86,240Z"/><path class="d" d="M104.49,225.69a14.44,14.44,0,0,1,6.19-15q-1.09-1-2.22-2c-2.11-1.87-4.7-3.77-7.47-3.25-3.83.71-5.33,5.48-5.08,9.36.43,6.93,3.91,13.33,8.13,18.85a68.94,68.94,0,0,0,7.09,7.9A42.18,42.18,0,0,1,104.49,225.69Z"/><path class="d" d="M53.18,275.09c-10.45-3-21.09-15.08-23.46-25.59a21.46,21.46,0,0,1-.44-6.51,8.21,8.21,0,0,0-6.17,3.09c-1.67,2.36-1.48,5.59-.62,8.36,2.15,7,7.93,12.38,14.44,15.7s13.76,4.84,20.92,6.31l3.43-.6c-.06-.35-.14-.7-.2-1.05A11.75,11.75,0,0,1,53.18,275.09Z"/><path class="d" d="M81,259.6A13.7,13.7,0,0,0,74.12,249a9.29,9.29,0,0,0-1.15-.54c2.81,8,4.31,16.82-.3,24.22a5.27,5.27,0,0,1-6,2.44,38.47,38.47,0,0,0,2.43,5.69l2.12.54c2-3.49,4.6-6.67,6.62-10.18S81.34,263.64,81,259.6Z"/><path class="d" d="M58.75,296.2a12.23,12.23,0,0,1-3.68-4.32,16.72,16.72,0,0,0-2.31,1.43,3.44,3.44,0,0,0-1.53,2,3.13,3.13,0,0,0,.76,2.31,9.81,9.81,0,0,0,7.66,3.52,20.27,20.27,0,0,0,7.22-1.39A18.84,18.84,0,0,1,58.75,296.2Z"/><path class="d" d="M96.92,283.11a13.32,13.32,0,0,1,6.64.13,10.61,10.61,0,0,0-4.4-5.79,2.53,2.53,0,0,0-2-.4,2.7,2.7,0,0,0-1.29,1.1,16.06,16.06,0,0,0-2.71,6.62A11.47,11.47,0,0,1,96.92,283.11Z"/></g><path class="d" d="M252,347.79c15.1-8,23.29-18,28.65-34.25,1.27-3.85,2-8.68-1-11.45-3.18-3-8.34-1.53-12.17.53a54.86,54.86,0,0,0-18,15.5c-6.14,8.23-11.28,19.14-21.39,20.94a4.13,4.13,0,0,1-2.74-.22c-2.48-1.37-.87-5.1.69-7.45A34.2,34.2,0,0,0,231.47,317a5.3,5.3,0,0,0-.17-2.77,4.38,4.38,0,0,0-3.23-2.23c-4.84-1-9.56,2-13.41,5.09-9.81,7.93-23.43,21.08-30.19,31.73"/><path class="d" d="M168.51,226.56A38.85,38.85,0,0,0,185,209.64c1.7-3.42,2.9-7.24,2.4-11-.28-2.12-1.59-4.54-3.73-4.52-1.54,0-2.74,1.32-3.68,2.54a60.3,60.3,0,0,0-12,30.17"/><path class="d" d="M233.43,276.45c7.16-1.47,14.41-3,20.92-6.31s12.29-8.72,14.45-15.7c.85-2.77,1-6-.63-8.36-2.1-3-6.33-3.51-9.94-3-7.65,1.07-14.59,5.58-19.4,11.63s-7.59,13.52-8.83,21.14"/><path class="d" d="M222.2,280.77a46.57,46.57,0,0,0,4.29-12.53c1.24-5.88,1.65-12.52-1.87-17.38a5.09,5.09,0,0,0-7.46-1.9,13.67,13.67,0,0,0-6.88,10.64c-.34,4,1.16,8,3.18,11.53s4.57,6.69,6.62,10.18"/><path class="d" d="M211.45,291.68a64.58,64.58,0,0,1,13.83-2.18c4.68-.05,9.5,1,13.24,3.81a3.44,3.44,0,0,1,1.53,2,3.13,3.13,0,0,1-.76,2.31,9.81,9.81,0,0,1-7.66,3.52,22.24,22.24,0,0,1-8.46-1.85c-3.67-1.43-7.41-3.37-9.4-6.77"/><path class="d" d="M195,303.77c1.44-4.21,2.9-8.47,3.31-12.9s-.33-9.12-2.94-12.72a2.7,2.7,0,0,0-1.29-1.1,2.53,2.53,0,0,0-2,.4c-2.46,1.42-4,4.1-4.74,6.83a20.74,20.74,0,0,0,5,19.87"/><path class="d" d="M257.09,251.18c-1.13,4.67-4.34,8.31-7.89,11.4s-7.53,5.94-11.37,8.78c-7.59,5.61-15.32,11-23,16.51-15.31,10.94-30.57,22.18-43.86,35.58a147,147,0,0,0-19.69,24.31c-.49.78.74,1.5,1.24.72,10.21-16,23.92-29.29,38.63-41.12,15-12,31-22.68,46.43-34.05,4.21-3.1,8.52-6.17,12.48-9.59,3.79-3.27,7.21-7.19,8.41-12.16a.72.72,0,0,0-1.38-.38Z"/><g class="e"><path class="d" d="M171.17,215.92c-.68,1.6-1.45,3.15-2.24,4.7A60.33,60.33,0,0,1,173.6,207C174.41,209,171.73,214.63,171.17,215.92Z"/></g><g class="e"><path class="d" d="M183.89,205.42A8,8,0,0,0,179,198c.32-.45.64-.9,1-1.34.94-1.22,2.14-2.52,3.68-2.54,2.14,0,3.46,2.4,3.73,4.52.5,3.78-.7,7.6-2.4,11a38.52,38.52,0,0,1-3,5A23.24,23.24,0,0,0,183.89,205.42Z"/></g><g class="e"><path class="d" d="M227.41,329.15a19.31,19.31,0,0,0-11.95-12.75c3.7-2.87,8.1-5.42,12.61-4.45a4.38,4.38,0,0,1,3.23,2.23,5.3,5.3,0,0,1,.17,2.77A34.21,34.21,0,0,1,227.41,329.15Z"/><path class="d" d="M252.69,342.09c5.54-6.31,11-13,15.12-20.37,2.72-4.84,5.72-11.09,3.87-16.74a9.73,9.73,0,0,0-1.92-3.43c3.42-1.37,7.32-1.87,9.9.54,3,2.77,2.27,7.6,1,11.45-5.36,16.25-13.55,26.21-28.65,34.25l-4.45.07C249.34,346,251,344,252.69,342.09Z"/><path class="d" d="M238.1,275.09c10.45-3,21.09-15.08,23.46-25.59A21.46,21.46,0,0,0,262,243a8.21,8.21,0,0,1,6.17,3.09c1.67,2.36,1.48,5.59.63,8.36-2.16,7-7.94,12.38-14.45,15.7s-13.76,4.84-20.92,6.31l-3.43-.6c.06-.35.14-.7.2-1.05A11.75,11.75,0,0,0,238.1,275.09Z"/><path class="d" d="M210.28,259.6A13.67,13.67,0,0,1,217.16,249a10,10,0,0,1,1.15-.54c-2.81,8-4.31,16.82.3,24.22a5.27,5.27,0,0,0,6,2.44,37.44,37.44,0,0,1-2.43,5.69l-2.12.54c-2.05-3.49-4.6-6.67-6.62-10.18S209.94,263.64,210.28,259.6Z"/><path class="d" d="M232.53,296.2a12.23,12.23,0,0,0,3.68-4.32,16.72,16.72,0,0,1,2.31,1.43,3.44,3.44,0,0,1,1.53,2,3.13,3.13,0,0,1-.76,2.31,9.81,9.81,0,0,1-7.66,3.52,20.27,20.27,0,0,1-7.22-1.39A18.84,18.84,0,0,0,232.53,296.2Z"/><path class="d" d="M194.36,283.11a13.32,13.32,0,0,0-6.64.13,10.61,10.61,0,0,1,4.4-5.79,2.53,2.53,0,0,1,2-.4,2.7,2.7,0,0,1,1.29,1.1,16.06,16.06,0,0,1,2.71,6.62A11.47,11.47,0,0,0,194.36,283.11Z"/></g><g class="f"><path class="d" d="M67.17,230.58a2.57,2.57,0,1,0-2.57,2.57A2.57,2.57,0,0,0,67.17,230.58Z"/><circle class="d" cx="8.44" cy="288.21" r="3.67"/><circle class="d" cx="48.81" cy="146.15" r="6.61"/><circle class="d" cx="184.63" cy="162.67" r="2.94"/><path class="d" d="M288.14,282.7a4.77,4.77,0,1,0-4.77,4.77A4.78,4.78,0,0,0,288.14,282.7Z"/><path class="d" d="M232.71,223.6a1.84,1.84,0,1,0-1.83,1.84A1.83,1.83,0,0,0,232.71,223.6Z"/><path class="d" d="M151.59,98.43a5.14,5.14,0,1,0-5.14,5.14A5.14,5.14,0,0,0,151.59,98.43Z"/></g><circle class="g" cx="20.91" cy="169.05" r="18.67"/><path class="g" d="M6,183.57c-3.31,7.47.74,7,2.82,6.63a5.8,5.8,0,0,0,2.45-1.29c10.33-7.92,16.63-20,21.48-32,1.18-2.94,2.28-6.29,1-9.16a3.14,3.14,0,0,0-1.23-1.48c-1.67-.91-3.54.71-4.75,2.18"/><circle class="h" cx="251.73" cy="116.7" r="14.03" transform="translate(-13.21 34.27) rotate(-7.59)"/><path class="h" d="M241.06,105.26c-5.56-2.61-5.26.44-5,2a4.34,4.34,0,0,0,.92,1.86c5.8,7.88,14.75,12.81,23.75,16.64,2.19.92,4.69,1.81,6.86.86a2.22,2.22,0,0,0,1.13-.91c.71-1.23-.47-2.67-1.56-3.59"/><path class="c" d="M70.69,206.39a3.32,3.32,0,1,0-3.32,3.32A3.32,3.32,0,0,0,70.69,206.39Z"/><path class="c" d="M84.8,86.08a6.23,6.23,0,1,0-6.22,6.22A6.22,6.22,0,0,0,84.8,86.08Z"/><circle class="c" cx="227.1" cy="188.55" r="2.9"/><path class="c" d="M207.18,81.1a2.49,2.49,0,1,0-2.49,2.49A2.49,2.49,0,0,0,207.18,81.1Z"/><line class="i" x1="20.77" y1="348.43" x2="273.99" y2="348.43"/><ellipse class="c" cx="137.49" cy="374.82" rx="78.82" ry="9.96"/><path class="j" d="M120.75,90.36a42.11,42.11,0,0,1,32.76-18.21,16.2,16.2,0,0,1,7.69,1.21c2.92,1.41,5,4.11,6.92,6.7q7.73,10.22,16.1,19.91c1.12,1.3,2.37,2.66,4,3s3.2-.38,4.7-1c8.21-3.56,18.3-6,25.63-.87,1.54,5.35-3.47,11.45-9,11-4.15-.35-8.79-3.49-12-.8a25.91,25.91,0,0,1,12.89,7.23c-9.63,2.56-6.25,20.4-15.58,23.91-4,1.49-8.55-.52-12.58.77-3.73,1.18-6,4.8-8.49,7.81a37.37,37.37,0,0,1-36.17,12.38,318.2,318.2,0,0,0-9.52-63.63"/><path class="j" d="M136.64,76.05c-2.56,0-4.43-2.36-5.81-4.52-3.06-4.81-5.75-10.3-5.17-16s5.65-11.19,11.29-10.3a11.86,11.86,0,0,1,4.71,2c5.2,3.49,8.84,9.51,8.72,15.78S146,75.52,139.94,77.15"/><path class="k" d="M140.26,77.44a15.7,15.7,0,0,0,5.13-18.69,15.92,15.92,0,0,0-6.94-7.56c-2.44-1.31-7.37-2.54-8.1,1.42-.09.51.69.73.78.22.43-2.34,3-2.42,4.87-1.83a13.66,13.66,0,0,1,4.24,2.34,15.17,15.17,0,0,1,4.93,7.09,14.92,14.92,0,0,1-5.32,16.31c-.41.31,0,1,.41.7Z"/><path class="k" d="M136.69,85.36a22.92,22.92,0,0,1,27.07,11.08c2.71,5.12,4,10.88,6.94,15.88a23.35,23.35,0,0,0,11.78,10c5.55,2.11,12.53,1.41,17.05,5.79.37.36.94-.21.57-.57-3.89-3.77-9.52-3.9-14.49-5.11a22.57,22.57,0,0,1-14.21-10.49c-3.09-5.24-4.34-11.31-7.34-16.6A23.07,23.07,0,0,0,153,85.43a23.56,23.56,0,0,0-16.53-.85c-.49.16-.28,1,.22.78Z"/><path class="k" d="M137.9,83.88a29.36,29.36,0,0,1,31.7,5.66c4.11,4,6.28,9.48,10.39,13.43a13.53,13.53,0,0,0,7.57,3.77,24.31,24.31,0,0,0,9.17-.84c6.77-1.67,14.89-5.26,21.34-.71.43.3.83-.41.41-.7-11.69-8.24-26.57,8.39-37.66-1.85-4.37-4-6.56-9.83-10.9-13.92a30,30,0,0,0-14.32-7.37,29.4,29.4,0,0,0-18.11,1.83c-.48.21-.07.91.41.7Z"/><path class="k" d="M132.33,90.28a19.53,19.53,0,0,0,3.69,9.93c1.75,2.27,4.55,3.94,7.4,2.65a3.92,3.92,0,0,0,2.42-3.19c0-.52-.76-.52-.81,0a3.39,3.39,0,0,1-2.92,2.77,5.15,5.15,0,0,1-4.5-1.65c-2.73-2.65-4.11-6.81-4.48-10.51,0-.52-.86-.52-.8,0Z"/><path class="j" d="M136.8,75.62c-3.5,2.58-7.45-.81-9.18-3.85a17.12,17.12,0,0,1-2.26-8.25,22,22,0,0,1,1.72-7.7,18.56,18.56,0,0,1,5.38-8c.81-.64-.34-1.78-1.15-1.14a19.27,19.27,0,0,0-5.39,7.68,25,25,0,0,0-2.18,8.87c-.15,5.22,2.56,12.12,7.68,14.29a6.28,6.28,0,0,0,6.2-.54c.83-.61,0-2-.82-1.4Z"/><path class="l" d="M155.9,113.29a.94.94,0,0,0,1.15.71c2.16-.56,7-2.28,9.17,3.19s-2.47,10.13-5.7,11.14c-.93.29-3.06,1-3.53,1.9-1.42,2.64-1.16,7.56-1.19,13.79a72.86,72.86,0,0,0,2.1,17.13c8.21,4.58,13.6,5.83,13.6,5.83s-29.87,78-59.74.41c0,0,16.18-4.56,17.43-5.79.3-9.3.73-23.11.6-23.19-3.31-2-15-.79-14.15-24.26.83-21.73,16-24.06,20-24.34C138.93,89.56,150.16,87.45,155.9,113.29Z"/><path class="m" d="M164.18,119.45s-5.21-6.3-7.09,4.39"/><path class="n" d="M137.14,118.08a5.24,5.24,0,1,0,6.27,3.93A5.24,5.24,0,0,0,137.14,118.08Z"/><path class="n" d="M116.47,125.35a5.24,5.24,0,0,0-.67-9.78S115.06,121.73,116.47,125.35Z"/><path class="o" d="M128.79,123.06a5.17,5.17,0,0,1-5.3,2,5.51,5.51,0,0,1-3.57-2.9"/><path class="m" d="M124.39,117.72l.74,4-2.11,0a.51.51,0,0,1-.44-.76Z"/><path d="M133.31,111.17c.91.77-.31-2.4-1.6-2.88a2.34,2.34,0,0,0-3.08,1.17A7.32,7.32,0,0,1,133.31,111.17Z"/><path d="M118.16,109.5c-1,.59.73-2.31,2.09-2.55a2.34,2.34,0,0,1,2.82,1.7A7.27,7.27,0,0,0,118.16,109.5Z"/><path class="m" d="M128.69,138.11s6.23.46,11-1.09C137.05,144.21,131.26,143.75,128.69,138.11Z"/><path class="j" d="M125.25,84c-15.77-6.64-10.89,23.64-10.89,23.64,4.81.59,6.89-3.35,8.41-7.91a7.71,7.71,0,0,1,4.45-4.66h0a2.35,2.35,0,0,0,1.45-2.57h0A15.31,15.31,0,0,0,139.11,108h0a6.7,6.7,0,0,0,8.59-8.08l-.42-1.6,4.93,14.73c1.58,2.86,6,0,9-1.25h0S154,69.24,125.25,84Z"/><path class="o" d="M130.54,118.29c-1.2.41-2.63.84-3.66-.4"/><path class="o" d="M122.52,117.6c-1.2.41-2.63.84-3.66-.41"/><path class="p" d="M120.48,163.25c-3.74,1.83-13.07,2.62-18,4.56,2.9,13.9.62,32.36,1.57,43.39,1.29,15,.82,39.17.82,39.17s50.34,1.09,65.13,2.07c8.14-24.77,17-63.84,11.93-83l-16.6-5.81C161,172,121.15,168.37,120.48,163.25Z"/><g class="q"><path class="r" d="M174.79,169.66c4.22,20.21,2.9,59.21-4.84,82.78-7.51-.5-24.19-1-38.78-1.42C152.2,227.82,170,200.66,174.79,169.66Z"/></g><path class="s" d="M166.08,251.61c15.9,19.08,26.85,69.56,26.85,69.56L83.66,318.54S90,269,110,250.57C110.08,250.71,140.91,249.54,166.08,251.61Z"/><path class="t" d="M166.08,251.61c15.9,19.08,26.85,69.56,26.85,69.56L83.66,318.54S90,269,110,250.57C110.08,250.71,140.91,249.54,166.08,251.61Z"/><path class="l" d="M62.82,330.94c-2-.35,0-4.05,4.67-5.44,7.41-2.22,19.33-6.41,22.82-10.66,4-4.9,7.78-6.82,10.46-7.53a6.41,6.41,0,0,1,5.75,1.33,7.61,7.61,0,0,0,4,2,16.05,16.05,0,0,0,3.69-.32l-.86,22.57S71.81,332.5,62.82,330.94Z"/><path class="s" d="M110.17,332.68S249,330.65,250,294.74c.89-33.17-54.28-25.29-60.09-24.46-21.76,3.11-80.35,30.24-80.35,30.24Z"/><path class="u" d="M147.14,284.39l-36.51,15.35.78,33.05S200.67,328,221.62,317.5Z"/><line class="v" x1="122.93" y1="332.37" x2="118.95" y2="295.5"/><path class="s" d="M153.36,330.85s-132.93-4.53-129-40.24c2.9-26.55,46.46-21.37,67.2-14.11S155,303.05,155,303.05Z"/><path class="l" d="M203.4,330.92c2-.15.35-4-4.13-5.86-7.15-2.93-18.61-8.26-21.67-12.83-3.54-5.27-7.08-7.54-9.68-8.51a6.42,6.42,0,0,0-5.85.77,7.65,7.65,0,0,1-4.15,1.6,16.08,16.08,0,0,1-3.64-.67L152.94,328S194.3,331.6,203.4,330.92Z"/><line class="v" x1="147.83" y1="300.29" x2="145.06" y2="329.19"/><path class="m" d="M134,218s.83-4.77,1.66-3.53,2.9,14.73,2.9,14.73Z"/><path class="l" d="M138.52,254.72c22.82,2.94,61.67,3.37,63.27-.2,11.41-4.37-.83-50-8.3-69.7-4.05-10.7-9.4-16.29-15.14-17.43-10.58-1.66-.25,59.1,3.32,64.72,0,0-7-1.66-40,6.85,0,0-6.11-19.52-7.67-21,0,0-2.28-1.66-1.45,1.45s2,31.86,2.69,32.77C137.69,255.34,138.52,254.72,138.52,254.72Z"/><path class="m" d="M132.62,218s-.83-4.77-1.66-3.53-2.9,14.73-2.9,14.73Z"/><path class="l" d="M128.06,254.72c-22.82,2.94-50.59-7.42-52.18-11-11.41-4.36,5-41,14.73-59.74,5.8-11.2,11.26-17.12,17-18.26,15.76-1.24-7.06,55.18-7.47,61.82,0,0,3.32,4.15,24.8,11.41,0,0,6.12-19.52,7.67-21,0,0,2.29-1.66,1.46,1.45s-2,31.86-2.7,32.77C128.89,255.34,128.06,254.72,128.06,254.72Z"/></g></svg>